<?xml version="1.0" encoding="UTF-8"?>
<!--Generator: Apple Native CoreSVG 232.5-->
<!DOCTYPE svg
        PUBLIC "-//W3C//DTD SVG 1.1//EN"
        "http://www.w3.org/Graphics/SVG/1.1/DTD/svg11.dtd">
<svg version="1.1" xmlns="http://www.w3.org/2000/svg"
     xmlns:xlink="http://www.w3.org/1999/xlink" width="231.375"
     height="285.375" viewBox="-90 0 285 285">
    <g>
        <rect height="285.375" opacity="0" width="81.375" x="0" y="0"/>
        <path d="M30.375 285.25L51.25 285.25L51.25 165.25L30.375 165.25ZM15.375 184.25L66.125 184.25C77 184.25 81.375 179.875 81.375 168.875L81.375 72.75C81.375 61.875 77 57.375 66.125 57.375L15.375 57.375C4.375 57.375 0 61.875 0 72.75L0 168.875C0 179.875 4.375 184.25 15.375 184.25Z"
              fill="#000000"/>
        <path d="M16.375 42.75L65 42.75L65 15.375C65 4.375 60.5 0 49.625 0L31.875 0C20.875 0 16.375 4.375 16.375 15.375Z"
              fill="#000000" fill-opacity="0.5"/>
    </g>
</svg>
