<?xml version="1.0" encoding="utf-8"?>
<!-- Generator: Adobe Illustrator 27.0.0, SVG Export Plug-In . SVG Version: 6.00 Build 0)  -->
<svg version="1.1" id="Ebene_1" xmlns="http://www.w3.org/2000/svg" xmlns:xlink="http://www.w3.org/1999/xlink" x="0px" y="0px"
	 viewBox="-7 0 74.4 74.4" style="enable-background:new 0 0 60.8 74.4;" xml:space="preserve">
<style type="text/css">
	.st0{display:none;fill-opacity:0;}
</style>
<g>
	<rect y="0" class="st0" width="60.8" height="74.4"/>
	<path d="M56.2,9.7c-3.8-1.6-18.9-7-22.6-8.3c-1-0.3-2.1-0.5-3.1-0.5c-1.1,0-2.2,0.2-3.1,0.5C23.5,2.6,8.4,8.2,4.6,9.7
		C1.8,10.9,0,12.1,0,15.9v27.8c0,13.6,7.3,18.7,28,30.1c1,0.6,1.9,0.7,2.4,0.7c0.5,0,1.4-0.1,2.4-0.7c21-10.6,27.9-16.5,27.9-30.1
		V15.9C60.8,12.1,59,11,56.2,9.7z M46.5,26L29.8,52.4c-0.8,1.4-2.1,2.1-3.5,2.1s-2.6-0.6-3.8-2.1l-8.7-10.9c-0.6-0.8-1-1.7-1-2.7
		c0-1.9,1.5-3.5,3.4-3.5c1.2,0,2.1,0.4,3.1,1.8l6.8,9l15-24.2c0.8-1.3,1.9-1.9,3-1.9c1.8,0,3.6,1.2,3.6,3.2
		C47.6,24.1,47,25.1,46.5,26z"/>
</g>
</svg>
