<?xml version="1.0" encoding="utf-8"?>
<!-- Generator: Adobe Illustrator 27.0.0, SVG Export Plug-In . SVG Version: 6.00 Build 0)  -->
<svg version="1.1" id="Ebene_1" xmlns="http://www.w3.org/2000/svg" xmlns:xlink="http://www.w3.org/1999/xlink" x="0px" y="0px"
	 viewBox="0 0 84.9 84.9" style="enable-background:new 0 0 84.9 86.1;" xml:space="preserve">
<style type="text/css">
	.st0{fill-opacity:0;}
</style>
<g>
	<rect y="0" class="st0" width="84.9" height="86.1"/>
	<g>
		<path d="M29.5,18.4c4.7-1.7,9.8-3.4,13.3-4.8c0.5-0.2,0.9-0.2,1.3-0.2s0.8,0,1.3,0.2c6,2.4,15.9,5.9,22.1,8
			c0.8,0.3,0.9,0.7,0.9,1.5v25.3c0,3-0.4,5.5-1.2,7.6l5.3,5.3c1.8-3.2,2.6-6.8,2.6-11.3V21.8c0-3.8-1.8-5-4.7-6.3
			C66.6,13.9,51,8.4,47.2,7.1c-1-0.3-2.1-0.6-3.1-0.6c-1.1,0-2.2,0.3-3.2,0.6c-2.6,0.6-10.7,3.6-16.7,5.9L29.5,18.4z"/>
		<path d="M56.1,67c-2.7,1.7-5.8,3.6-9.6,5.9c-1.2,0.7-1.8,0.8-2.3,0.8s-1.2-0.1-2.4-0.8C24.8,62.8,19.8,59.8,19.8,48.4V30.8
			l-6.7-6.6v25.9c0,13.9,7.4,19.1,28.5,30.7c1,0.6,1.9,0.8,2.5,0.8c0.5,0,1.5-0.2,2.5-0.8c5.9-3.2,10.7-6,14.6-8.5L56.1,67z"/>
	</g>
	<path d="M74.8,79.3c1.3,1.3,3.3,1.3,4.5,0c1.2-1.3,1.3-3.3,0-4.5L10.1,5.6c-1.3-1.3-3.3-1.3-4.6,0c-1.2,1.2-1.2,3.3,0,4.5
		L74.8,79.3z"/>
</g>
</svg>

