<?xml version="1.0" encoding="UTF-8"?>
<!--Generator: Apple Native CoreSVG 232.5-->
<!DOCTYPE svg
PUBLIC "-//W3C//DTD SVG 1.1//EN"
       "http://www.w3.org/Graphics/SVG/1.1/DTD/svg11.dtd">
<svg version="1.1" xmlns="http://www.w3.org/2000/svg" xmlns:xlink="http://www.w3.org/1999/xlink" width="139.863" height="139.141">
 <g>
  <rect height="139.141" opacity="0" width="139.863" x="0" y="0"/>
  <path d="M54.6769 139.141C59.6345 139.141 63.5313 137.171 66.2387 133.074L137.089 23.3644C139.09 20.3595 139.863 17.6255 139.863 15.0468C139.863 8.42949 135.061 3.68519 128.252 3.68519C123.526 3.68519 120.672 5.32287 117.778 9.88984L54.3173 110.839L21.5432 68.5866C18.8003 65.1555 15.9065 63.6375 11.7833 63.6375C4.97516 63.6375 0 68.5151 0 75.2301C0 78.1814 1.00312 80.9244 3.47068 83.8802L43.1947 133.376C46.426 137.326 49.9677 139.141 54.6769 139.141Z" fill="#000000" fill-opacity="0"/>
 </g>
</svg>
