<?xml version="1.0" encoding="UTF-8"?>
<!--Generator: Apple Native CoreSVG 232.5-->
<!DOCTYPE svg
PUBLIC "-//W3C//DTD SVG 1.1//EN"
       "http://www.w3.org/Graphics/SVG/1.1/DTD/svg11.dtd">
<svg version="1.1" xmlns="http://www.w3.org/2000/svg" xmlns:xlink="http://www.w3.org/1999/xlink" width="172.754" height="170.19">
 <g>
  <rect height="170.19" opacity="0" width="172.754" x="0" y="0"/>
  <path d="M88.5951 163.644C90.1976 163.644 91.8002 163.546 93.4337 163.449L97.6109 171.412C98.7117 173.769 101.228 174.994 103.94 174.541C106.492 174.022 108.463 171.989 108.751 169.339L110.092 160.532C113.231 159.716 116.205 158.473 119.215 157.327L125.771 163.134C127.675 164.878 130.52 165.397 132.975 164.008C135.203 162.619 136.335 160 135.687 157.448L133.862 148.805C136.379 146.843 138.963 144.783 141.28 142.595L149.435 146.017C152.058 147.118 154.672 146.341 156.514 144.175C158.032 142.236 158.32 139.457 156.967 137.198L152.204 129.598C153.97 126.917 155.506 124.138 157.011 121.128L165.916 121.519C168.499 121.648 171.02 120.165 171.828 117.546C172.733 115.123 171.761 112.38 169.791 110.795L162.813 105.282C163.598 102.21 164.184 98.9742 164.477 95.7025L172.827 92.9636C175.543 92.0582 177.226 89.9943 177.226 87.2779C177.226 84.5615 175.543 82.4977 172.827 81.5922L164.477 78.8533C164.184 75.5816 163.598 72.4431 162.813 69.2736L169.76 63.7603C171.761 62.1447 172.733 59.5305 171.828 57.1381C171.02 54.4883 168.499 53.0369 165.916 53.1346L157.011 53.4275C155.506 50.4178 153.97 47.7055 152.204 44.9266L156.967 37.358C158.289 35.2275 158.032 32.418 156.514 30.4783C154.672 28.3123 152.089 27.6022 149.47 28.6363L141.218 31.9301C138.963 29.8703 136.379 27.744 133.862 25.8174L135.687 17.1746C136.268 14.4582 135.172 11.9061 132.913 10.6145C130.489 9.25628 127.644 9.61135 125.771 11.4889L119.215 17.2596C116.205 16.0832 113.2 14.9379 110.092 14.0235L108.751 5.31407C108.463 2.66428 106.492 0.631471 103.878 0.081082C101.228-0.340597 98.7738 0.915452 97.642 3.08146L93.4337 11.1072C91.8002 11.0096 90.1976 10.943 88.5951 10.943C86.8949 10.943 85.3589 11.0096 83.6587 11.1072L79.4816 3.11251C78.3187 0.884398 75.8642-0.340597 73.1523 0.112136C70.6002 0.631471 68.7627 2.66428 68.341 5.31407L67.0004 14.0235C63.9595 14.9379 60.8877 16.0832 57.9445 17.2596L51.4191 11.5199C49.4484 9.61135 46.6699 9.25628 44.1488 10.6145C41.9207 11.9061 40.891 14.4582 41.4724 17.2057L43.2303 25.8174C40.7799 27.744 38.1297 29.8703 35.8435 31.9301L27.5914 28.6363C25.0703 27.6022 22.4871 28.3123 20.6451 30.4783C19.1271 32.418 18.8031 35.2275 20.1924 37.358L24.8889 44.9266C23.1887 47.7055 21.6527 50.4178 20.0812 53.4275L11.1765 53.1346C8.65995 53.0369 6.13886 54.4883 5.33105 57.107C4.49219 59.5305 5.33105 62.1758 7.30175 63.7603L14.2799 69.3047C13.4941 72.4431 12.9082 75.5816 12.6818 78.8533L4.19881 81.5922C1.54902 82.431 0 84.5615 0 87.2779C0 89.9943 1.54902 92.1248 4.19881 92.9636L12.6818 95.7025C12.9082 98.9742 13.4941 102.21 14.2799 105.282L7.3328 110.795C5.33105 112.411 4.49219 115.123 5.33105 117.515C6.13886 120.165 8.65995 121.648 11.2076 121.519L20.0812 121.128C21.6527 124.138 23.1887 126.917 24.8889 129.598L20.1613 137.229C18.7721 139.426 19.1271 142.236 20.6451 144.175C22.4871 146.341 25.0703 147.118 27.689 145.986L35.8125 142.595C38.1297 144.783 40.7799 146.843 43.2303 148.805L41.4724 157.479C40.9887 160 41.8896 162.619 44.1799 164.039C46.6388 165.397 49.4484 164.909 51.388 163.165L57.9445 157.327C60.8877 158.473 63.9285 159.716 67.0004 160.532L68.341 169.339C68.7627 171.989 70.6002 174.022 73.2144 174.572C75.8642 174.994 78.3187 173.738 79.4816 171.443L83.6587 163.449C85.3589 163.546 86.8949 163.644 88.5951 163.644ZM88.5951 146.072C55.8353 146.072 30.3335 119.904 30.3335 87.3445C30.3335 54.7179 55.8353 28.4835 88.5951 28.4835C121.355 28.4835 146.923 54.7179 146.923 87.3445C146.923 119.904 121.355 146.072 88.5951 146.072ZM72.0969 74.3701L84.8972 66.4342L60.8775 25.1244L47.3715 32.0441ZM108.17 94.7566L156.231 94.7566L156.231 79.644L108.201 79.644ZM84.7064 108.326L72.1635 100.004L46.4615 142.166L59.7411 149.343ZM88.3953 110.55C101.263 110.55 111.601 100.212 111.601 87.4111C111.601 74.61 101.263 64.2057 88.3953 64.2057C75.5941 64.2057 65.323 74.61 65.323 87.4111C65.323 100.212 75.5941 110.55 88.3953 110.55ZM88.3953 95.7916C83.6857 95.7916 80.0814 92.1873 80.0814 87.4111C80.0814 82.6349 83.6857 78.9641 88.3953 78.9641C93.1714 78.9641 96.8423 82.6349 96.8423 87.4111C96.8423 92.1873 93.1714 95.7916 88.3953 95.7916Z" fill="#000000" fill-opacity="0.45"/>
 </g>
</svg>
