<?xml version="1.0" encoding="UTF-8"?>
<!--Generator: Apple Native CoreSVG 232.5-->
<!DOCTYPE svg
PUBLIC "-//W3C//DTD SVG 1.1//EN"
       "http://www.w3.org/Graphics/SVG/1.1/DTD/svg11.dtd">
<svg version="1.1" xmlns="http://www.w3.org/2000/svg" xmlns:xlink="http://www.w3.org/1999/xlink" width="162.842" height="172.656">
 <g>
  <rect height="172.656" opacity="0" width="162.842" x="0" y="0"/>
  <path d="M81.3965 167.725C126.074 167.725 162.842 131.006 162.842 86.3281C162.842 64.1113 153.662 43.9941 139.941 30.2246C129.346 19.2383 113.184 32.666 124.316 44.7266C134.766 55.4199 141.162 70.0684 141.211 86.3281C141.26 119.482 114.551 146.143 81.3965 146.143C48.291 146.143 21.6797 119.482 21.6797 86.3281C21.7285 69.9707 28.125 55.3711 38.5254 44.6777C49.707 32.5684 33.4961 19.1895 22.9004 30.1758C9.17969 43.9453 0 64.1113 0 86.3281C0 131.006 36.7676 167.725 81.3965 167.725ZM81.3965 88.5742C88.3789 88.5742 92.9199 83.7402 92.9199 76.3672L92.9199 12.2559C92.9199 4.88281 88.3789 0 81.3965 0C74.4629 0 69.873 4.88281 69.873 12.2559L69.873 76.3672C69.873 83.7402 74.4629 88.5742 81.3965 88.5742Z" fill="#000000" fill-opacity="0.85"/>
 </g>
</svg>
