<?xml version="1.0" encoding="UTF-8"?>
<!--Generator: Apple Native CoreSVG 232.5-->
<!DOCTYPE svg
        PUBLIC "-//W3C//DTD SVG 1.1//EN"
        "http://www.w3.org/Graphics/SVG/1.1/DTD/svg11.dtd">
<svg version="1.1" xmlns="http://www.w3.org/2000/svg"
     xmlns:xlink="http://www.w3.org/1999/xlink" width="64.4062"
     height="65.9531" viewBox="-15 -15 95 95">
    <g>
        <rect height="65.9531" opacity="0" width="64.4062" x="0" y="0"/>
        <path d="M24.8438 65.9531C26.6719 65.9531 28.125 65.1562 29.1562 63.5625L63.3281 9.51562C64.125 8.29688 64.4062 7.3125 64.4062 6.32812C64.4062 4.03125 62.9062 2.48438 60.5625 2.48438C58.875 2.48438 57.9375 3.04688 56.9062 4.6875L24.6562 56.4375L7.6875 33.5625C6.60938 32.1094 5.57812 31.5 4.03125 31.5C1.6875 31.5 0 33.1406 0 35.4844C0 36.4688 0.421875 37.5469 1.21875 38.5781L20.3906 63.4688C21.7031 65.1562 23.0156 65.9531 24.8438 65.9531Z"
              fill="#f0eae8" fill-opacity="0.95"/>
    </g>
</svg>
