<?xml version="1.0" encoding="UTF-8"?>
<!--Generator: Apple Native CoreSVG 232.5-->
<!DOCTYPE svg
        PUBLIC "-//W3C//DTD SVG 1.1//EN"
        "http://www.w3.org/Graphics/SVG/1.1/DTD/svg11.dtd">
<svg version="1.1" xmlns="http://www.w3.org/2000/svg"
     xmlns:xlink="http://www.w3.org/1999/xlink" width="60.7969"
     height="74.3906" viewBox="-7 0 75 75">
    <g>
        <rect height="74.3906" opacity="0" width="60.7969" x="0" y="0"/>
        <path d="M30.4219 74.3906C30.9375 74.3906 31.8281 74.25 32.8594 73.7344C53.9062 63.0938 60.7969 57.2344 60.7969 43.6406L60.7969 15.8906C60.7969 12.1406 59.0156 10.9688 56.1562 9.75C52.4062 8.15625 37.2188 2.71875 33.5156 1.45312C32.5312 1.125 31.4531 0.9375 30.4219 0.9375C29.3438 0.9375 28.2656 1.17188 27.2812 1.45312C23.5312 2.57812 8.39062 8.20312 4.64062 9.75C1.78125 10.9219 0 12.1406 0 15.8906L0 43.6406C0 57.2344 7.3125 62.3438 27.9844 73.7344C28.9688 74.2969 29.8594 74.3906 30.4219 74.3906Z"
              fill="#ff3b30"/>
        <path d="M30.4219 43.3125C28.2656 43.3125 27.0469 42.1406 27.0469 39.9844L26.4844 20.0156C26.4375 17.8125 28.0781 16.2188 30.375 16.2188C32.625 16.2188 34.3594 17.8594 34.3125 20.0156L33.7031 39.9844C33.6562 42.1875 32.4844 43.3125 30.4219 43.3125ZM30.4219 56.0625C28.0312 56.0625 25.9219 54.1406 25.9219 51.7969C25.9219 49.4062 27.9844 47.4844 30.4219 47.4844C32.8594 47.4844 34.875 49.3594 34.875 51.7969C34.875 54.1875 32.8125 56.0625 30.4219 56.0625Z"
              fill="#ffffff"/>
    </g>
</svg>
