<?xml version="1.0" encoding="UTF-8"?>
<!--Generator: Apple Native CoreSVG 232.5-->
<!DOCTYPE svg
PUBLIC "-//W3C//DTD SVG 1.1//EN"
       "http://www.w3.org/Graphics/SVG/1.1/DTD/svg11.dtd">
<svg version="1.1" xmlns="http://www.w3.org/2000/svg" xmlns:xlink="http://www.w3.org/1999/xlink" width="50.4883" height="177.246">
 <g>
  <rect height="177.246" opacity="0" width="50.4883" x="0" y="0"/>
  <path d="M18.1641 177.148L32.4219 177.148L32.4219 102.734L18.1641 102.734ZM9.86328 114.453L40.625 114.453C47.7539 114.453 50.4883 111.816 50.4883 104.688L50.4883 46.2891C50.4883 39.2578 47.7539 36.4258 40.625 36.4258L9.86328 36.4258C2.73438 36.4258 0 39.2578 0 46.2891L0 104.688C0 111.816 2.73438 114.453 9.86328 114.453Z" fill="rgb(252,252,252)" fill-opacity="1.0"/>
  <path d="M9.86328 26.8555L40.625 26.8555L40.625 9.86328C40.625 2.73438 37.793 0 30.7617 0L19.7266 0C12.5977 0 9.86328 2.73438 9.86328 9.86328Z" fill="rgb(252,252,252)" fill-opacity="1.0"/>
 </g>
</svg>
