<?xml version="1.0" encoding="UTF-8"?>
<!--Generator: Apple Native CoreSVG 232.5-->
<!DOCTYPE svg
PUBLIC "-//W3C//DTD SVG 1.1//EN"
       "http://www.w3.org/Graphics/SVG/1.1/DTD/svg11.dtd">
<svg version="1.1" xmlns="http://www.w3.org/2000/svg" xmlns:xlink="http://www.w3.org/1999/xlink" width="136.23" height="84.2773">
 <g>
  <rect height="84.2773" opacity="0" width="136.23" x="0" y="0"/>
  <path d="M68.1641 84.2773C70.3125 84.2773 72.4609 83.4961 73.9258 81.8359L133.887 21.4844C135.352 20.0195 136.23 18.0664 136.23 15.8203C136.23 11.2305 132.812 7.71484 128.223 7.71484C126.074 7.71484 123.926 8.69141 122.461 10.0586L63.5742 69.1406L72.6562 69.1406L13.7695 10.0586C12.3047 8.69141 10.3516 7.71484 8.10547 7.71484C3.51562 7.71484 0 11.2305 0 15.8203C0 18.0664 0.878906 20.0195 2.34375 21.4844L62.4023 81.8359C63.9648 83.4961 65.918 84.2773 68.1641 84.2773Z" fill="#000000" fill-opacity="0.85"/>
 </g>
</svg>
