<?xml version="1.0" encoding="UTF-8"?>
<!--Generator: Apple Native CoreSVG 232.5-->
<!DOCTYPE svg
PUBLIC "-//W3C//DTD SVG 1.1//EN"
       "http://www.w3.org/Graphics/SVG/1.1/DTD/svg11.dtd">
<svg version="1.1" xmlns="http://www.w3.org/2000/svg" xmlns:xlink="http://www.w3.org/1999/xlink" width="136.23" height="83.6914">
 <g>
  <rect height="83.6914" opacity="0" width="136.23" x="0" y="0"/>
  <path d="M2.34375 62.793C0.878906 64.1602 0 66.2109 0 68.457C0 73.0469 3.51562 76.5625 8.10547 76.5625C10.3516 76.5625 12.4023 75.6836 13.7695 74.2188L72.6562 15.0391L63.5742 15.0391L122.461 74.2188C123.828 75.6836 126.074 76.5625 128.223 76.5625C132.812 76.5625 136.23 73.0469 136.23 68.457C136.23 66.2109 135.352 64.1602 133.887 62.793L73.9258 2.44141C72.4609 0.78125 70.3125 0 68.1641 0C65.918 0 63.8672 0.78125 62.4023 2.44141Z" fill="rgb(252,252,252)" fill-opacity="1.0"/>
 </g>
</svg>
