<?xml version="1.0" encoding="UTF-8"?>
<!--Generator: Apple Native CoreSVG 232.5-->
<!DOCTYPE svg
        PUBLIC "-//W3C//DTD SVG 1.1//EN"
        "http://www.w3.org/Graphics/SVG/1.1/DTD/svg11.dtd">
<svg version="1.1" xmlns="http://www.w3.org/2000/svg"
     xmlns:xlink="http://www.w3.org/1999/xlink" width="60.7969"
     height="74.3906" viewBox="-7 0 75 75">
    <g>
        <rect height="74.3906" opacity="0" width="60.7969" x="0" y="0"/>
        <path
                d="M30.4219 74.3906C30.9375 74.3906 31.8281 74.25 32.8594 73.7344C53.9062 63.0938 60.7969 57.2344 60.7969 43.6406L60.7969 15.8906C60.7969 12.1406 59.0156 10.9688 56.1562 9.75C52.4062 8.15625 37.2188 2.71875 33.5156 1.45312C32.5312 1.125 31.4531 0.9375 30.4219 0.9375C29.3438 0.9375 28.2656 1.17188 27.2812 1.45312C23.5312 2.57812 8.39062 8.20312 4.64062 9.75C1.78125 10.9219 0 12.1406 0 15.8906L0 43.6406C0 57.2344 7.3125 62.3438 27.9844 73.7344C28.9688 74.2969 29.8594 74.3906 30.4219 74.3906Z"
                fill="#000000" fill-opacity="0.85"/>
        <path d="M26.25 54.4688C24.7969 54.4688 23.625 53.9062 22.5 52.4062L13.7812 41.4844C13.1719 40.6875 12.7969 39.75 12.7969 38.7656C12.7969 36.8906 14.25 35.2969 16.1719 35.2969C17.3438 35.2969 18.2812 35.7188 19.3125 37.125L26.0625 46.125L41.0156 21.8906C41.8125 20.625 42.8906 19.9688 44.0156 19.9688C45.8438 19.9688 47.5781 21.1875 47.5781 23.1562C47.5781 24.1406 47.0156 25.125 46.5 25.9688L29.7656 52.4062C28.9219 53.8125 27.7031 54.4688 26.25 54.4688Z"
              fill="#f0eae8"/>
    </g>
</svg>
