<?xml version="1.0" encoding="UTF-8"?>
<!--Generator: Apple Native CoreSVG 232.5-->
<!DOCTYPE svg
        PUBLIC "-//W3C//DTD SVG 1.1//EN"
        "http://www.w3.org/Graphics/SVG/1.1/DTD/svg11.dtd">
<svg version="1.1" xmlns="http://www.w3.org/2000/svg"
     xmlns:xlink="http://www.w3.org/1999/xlink" width="84.9258"
     height="86.0859" viewBox="0 0 85 85">
    <g>
        <rect height="86.0859" opacity="0" width="84.9258" x="0" y="0"/>
        <path d="M44.0977 81.457C44.6133 81.457 45.5508 81.2695 46.582 80.707C67.6289 69.1758 75.082 63.9258 75.082 50.0508L75.082 21.832C75.082 17.9883 73.2539 16.8164 70.3477 15.5508C66.5508 13.9102 51.0352 8.42578 47.2383 7.11328C46.2539 6.78516 45.1758 6.55078 44.0977 6.55078C43.0195 6.55078 41.8945 6.87891 40.9102 7.11328C37.1602 8.05078 21.6445 13.957 17.8477 15.5508C14.9414 16.7695 13.1133 17.9883 13.1133 21.832L13.1133 50.0508C13.1133 63.9258 20.5195 69.1289 41.6133 80.707C42.5977 81.2695 43.5352 81.457 44.0977 81.457ZM44.0977 73.7695C43.5352 73.7695 42.9258 73.6289 41.707 72.9258C24.7852 62.8008 19.7695 59.8008 19.7695 48.4102L19.7695 23.0977C19.7695 22.2539 19.957 21.8789 20.707 21.5508C26.707 19.207 36.832 15.9727 42.832 13.582C43.3008 13.3945 43.7227 13.3477 44.0977 13.3477C44.4727 13.3477 44.8945 13.3945 45.3633 13.582C51.3164 15.9727 61.3008 19.4883 67.4414 21.5508C68.2383 21.832 68.3789 22.2539 68.3789 23.0977L68.3789 48.4102C68.3789 59.8008 63.3633 62.8008 46.4414 72.9258C45.2227 73.6289 44.6602 73.7695 44.0977 73.7695Z"
              fill="#f0eae8" fill-opacity="0.95"/>
        <path d="M71.6133 82.582C74.707 85.6289 79.6758 85.6758 82.6758 82.5352C85.6758 79.4883 85.6758 74.6133 82.6758 71.5195L13.3945 2.28516C10.3477-0.761719 5.33203-0.761719 2.28516 2.28516C-0.761719 5.28516-0.761719 10.3477 2.28516 13.3477Z"
              fill="#2d292c"/>
        <path d="M74.8477 79.3477C76.1133 80.6133 78.1758 80.6133 79.3945 79.3477C80.6133 78.082 80.6602 76.0664 79.3945 74.8008L10.1133 5.56641C8.84766 4.30078 6.78516 4.30078 5.51953 5.56641C4.30078 6.73828 4.30078 8.89453 5.51953 10.1133Z"
              fill="#f0eae8" fill-opacity="0.95"/>
    </g>
</svg>
