<?xml version="1.0" encoding="UTF-8"?>
<!--Generator: Apple Native CoreSVG 232.5-->
<!DOCTYPE svg
PUBLIC "-//W3C//DTD SVG 1.1//EN"
       "http://www.w3.org/Graphics/SVG/1.1/DTD/svg11.dtd">
<svg version="1.1" xmlns="http://www.w3.org/2000/svg" xmlns:xlink="http://www.w3.org/1999/xlink" width="90.2758" height="147.931">
 <g>
  <rect height="147.931" opacity="0" width="90.2758" x="0" y="0"/>
  <path d="M40.9435 104.04C47.6548 104.04 51.4185 100.151 52.1637 94.0834C52.1948 93.6572 52.2569 93.2045 52.288 92.7783C53.0112 84.4146 56.4382 80.85 68.787 72.9974C82.1965 64.4703 90.2758 54.2029 90.2758 39.3767C90.2758 15.3978 70.7581 1.67323 44.6364 1.67323C25.5547 1.67323 9.6281 9.5033 2.69001 23.3178C0.874584 26.8955 0.000172155 30.7662 0.000172155 34.2994C-0.0308819 40.8326 4.14097 45.3109 11.1579 45.3109C16.5462 45.3109 20.7891 42.3636 22.6797 37.4502C26.6085 26.1605 33.969 22.4936 43.5847 22.4936C55.509 22.4936 64.743 29.1126 64.743 39.5896C64.743 49.6621 58.9228 54.5098 48.4524 61.2521C37.4879 68.417 29.0265 76.8248 29.0265 89.2856C29.0265 90.2801 29.0265 91.2081 29.0265 92.136C29.0265 99.2641 33.4869 104.04 40.9435 104.04ZM41.0632 147.931C49.3587 147.931 56.003 141.402 56.003 133.395C56.003 125.286 49.3587 118.89 41.0632 118.89C32.9009 118.89 26.2211 125.286 26.2211 133.395C26.2211 141.402 32.9009 147.931 41.0632 147.931Z" fill="#ffffff" fill-opacity="0.45"/>
 </g>
</svg>
