<?xml version="1.0" encoding="UTF-8"?>
<!--Generator: Apple Native CoreSVG 232.5-->
<!DOCTYPE svg
PUBLIC "-//W3C//DTD SVG 1.1//EN"
       "http://www.w3.org/Graphics/SVG/1.1/DTD/svg11.dtd">
<svg version="1.1" xmlns="http://www.w3.org/2000/svg" xmlns:xlink="http://www.w3.org/1999/xlink" width="125.873" height="126.017">
 <g>
  <rect height="126.017" opacity="0" width="125.873" x="0" y="0"/>
  <path d="M3.06075 122.916C7.27264 127.061 14.3693 126.968 18.3282 123.009L62.9191 78.3515L107.515 122.978C111.531 127.061 118.57 127.03 122.715 122.885C126.861 118.673 126.892 111.7 122.809 107.684L78.2132 63.0574L122.809 18.5286C126.892 14.4455 126.927 7.40643 122.715 3.26114C118.504-0.817543 111.531-0.848597 107.515 3.16798L62.9191 47.7634L18.3282 3.13693C14.3693-0.755435 7.20604-0.9152 3.06075 3.23009C-1.01793 7.44198-0.924772 14.5386 2.96759 18.4976L47.6251 63.0574L2.96759 107.715C-0.924772 111.607-1.08454 118.771 3.06075 122.916Z" fill="#ffffff" fill-opacity="0.45"/>
 </g>
</svg>
